HIERARCHY
ROOT Hips
{
  OFFSET -333.48 92.8645 603.921
  CHANNELS 6 Xposition Yposition Zposition Zrotation Xrotation Yrotation
  JOINT Spine
  {
    OFFSET 0 8 0
    CHANNELS 6 Xposition Yposition Zposition Zrotation Xrotation Yrotation
    JOINT Spine1
    {
      OFFSET 0 8 2.13312e-05
      CHANNELS 6 Xposition Yposition Zposition Zrotation Xrotation Yrotation
      JOINT Spine2
      {
        OFFSET 1.24385e-05 8 0
        CHANNELS 6 Xposition Yposition Zposition Zrotation Xrotation Yrotation
        JOINT Spine3
        {
          OFFSET 0 8 0
          CHANNELS 6 Xposition Yposition Zposition Zrotation Xrotation Yrotation
          JOINT Neck
          {
            OFFSET -0.000227859 17 3.30626e-05
            CHANNELS 6 Xposition Yposition Zposition Zrotation Xrotation Yrotation
            JOINT Head
            {
              OFFSET 0 10.8 3.54164e-05
              CHANNELS 6 Xposition Yposition Zposition Zrotation Xrotation Yrotation
              End Site
              {
                OFFSET 0 20.25 0
              }
            }
          }
          JOINT LeftShoulder
          {
            OFFSET 4.99976 17.0001 2.71525e-05
            CHANNELS 6 Xposition Yposition Zposition Zrotation Xrotation Yrotation
            JOINT LeftShoulder2
            {
              OFFSET 6.45 0 0
              CHANNELS 6 Xposition Yposition Zposition Zrotation Xrotation Yrotation
              JOINT LeftArm
              {
                OFFSET 6.45002 -0.000548093 3.30381e-05
                CHANNELS 6 Xposition Yposition Zposition Zrotation Xrotation Yrotation
                JOINT LeftForeArm
                {
                  OFFSET 0 -32.4 -1.99613
                  CHANNELS 6 Xposition Yposition Zposition Zrotation Xrotation Yrotation
                  JOINT LeftHand
                  {
                    OFFSET -3.1678e-05 -25.65 2
                    CHANNELS 6 Xposition Yposition Zposition Zrotation Xrotation Yrotation
                    JOINT LeftHandThumb1
                    {
                      OFFSET -0.499991 -1.5 2.64998
                      CHANNELS 6 Xposition Yposition Zposition Zrotation Xrotation Yrotation
                      JOINT LeftHandThumb2
                      {
                        OFFSET 0 -3.8 3.70006
                        CHANNELS 6 Xposition Yposition Zposition Zrotation Xrotation Yrotation
                        JOINT LeftHandThumb3
                        {
                          OFFSET 0 -2.99999 2.69995
                          CHANNELS 6 Xposition Yposition Zposition Zrotation Xrotation Yrotation
                          End Site
                          {
                            OFFSET 0 -2.30003 1.80001
                          }
                        }
                      }
                    }
                    JOINT LeftHandIndex
                    {
                      OFFSET 2.92626e-05 -1.90005 1.60001
                      CHANNELS 6 Xposition Yposition Zposition Zrotation Xrotation Yrotation
                      JOINT LeftHandIndex1
                      {
                        OFFSET -1.57304e-05 -8.30002 1.89999
                        CHANNELS 6 Xposition Yposition Zposition Zrotation Xrotation Yrotation
                        JOINT LeftHandIndex2
                        {
                          OFFSET 0 -4.49995 -2.58332e-05
                          CHANNELS 6 Xposition Yposition Zposition Zrotation Xrotation Yrotation
                          JOINT LeftHandIndex3
                          {
                            OFFSET -6.19947e-05 -3.42937 5.13309e-05
                            CHANNELS 6 Xposition Yposition Zposition Zrotation Xrotation Yrotation
                            End Site
                            {
                              OFFSET 0 -2.59992 -1.33246e-05
                            }
                          }
                        }
                      }
                    }
                    JOINT LeftHandMiddle
                    {
                      OFFSET -0.249998 -2.2 0.400022
                      CHANNELS 6 Xposition Yposition Zposition Zrotation Xrotation Yrotation
                      JOINT LeftHandMiddle1
                      {
                        OFFSET -1.10905e-05 -8.3 0.999971
                        CHANNELS 6 Xposition Yposition Zposition Zrotation Xrotation Yrotation
                        JOINT LeftHandMiddle2
                        {
                          OFFSET 0 -4.64994 1.63598e-05
                          CHANNELS 6 Xposition Yposition Zposition Zrotation Xrotation Yrotation
                          JOINT LeftHandMiddle3
                          {
                            OFFSET -2.88335e-05 -3.30003 0
                            CHANNELS 6 Xposition Yposition Zposition Zrotation Xrotation Yrotation
                            End Site
                            {
                              OFFSET -2.87751e-05 -2.69996 0
                            }
                          }
                        }
                      }
                    }
                    JOINT LeftHandRing
                    {
                      OFFSET -0.50001 -2.15004 -0.799998
                      CHANNELS 6 Xposition Yposition Zposition Zrotation Xrotation Yrotation
                      JOINT LeftHandRing1
                      {
                        OFFSET 0 -7.75 -0.199983
                        CHANNELS 6 Xposition Yposition Zposition Zrotation Xrotation Yrotation
                        JOINT LeftHandRing2
                        {
                          OFFSET 0 -3.86076 -2.15507e-05
                          CHANNELS 6 Xposition Yposition Zposition Zrotation Xrotation Yrotation
                          JOINT LeftHandRing3
                          {
                            OFFSET 0 -3.4 0
                            CHANNELS 6 Xposition Yposition Zposition Zrotation Xrotation Yrotation
                            End Site
                            {
                              OFFSET -4.78214e-05 -2.60003 1.2199e-05
                            }
                          }
                        }
                      }
                    }
                    JOINT LeftHandPinky
                    {
                      OFFSET -0.750017 -1.75 -1.84999
                      CHANNELS 6 Xposition Yposition Zposition Zrotation Xrotation Yrotation
                      JOINT LeftHandPinky1
                      {
                        OFFSET -1.39196e-05 -7.15002 -1.00003
                        CHANNELS 6 Xposition Yposition Zposition Zrotation Xrotation Yrotation
                        JOINT LeftHandPinky2
                        {
                          OFFSET 1.25725e-05 -3.00774 0
                          CHANNELS 6 Xposition Yposition Zposition Zrotation Xrotation Yrotation
                          JOINT LeftHandPinky3
                          {
                            OFFSET -4.04834e-05 -2.35002 2.92657e-05
                            CHANNELS 6 Xposition Yposition Zposition Zrotation Xrotation Yrotation
                            End Site
                            {
                              OFFSET 0 -2.09997 -2.54114e-05
                            }
                          }
                        }
                      }
                    }
                  }
                }
              }
            }
          }
          JOINT RightShoulder
          {
            OFFSET -5.00022 16.9999 0.000108689
            CHANNELS 6 Xposition Yposition Zposition Zrotation Xrotation Yrotation
            JOINT RightShoulder2
            {
              OFFSET -6.45 0 0
              CHANNELS 6 Xposition Yposition Zposition Zrotation Xrotation Yrotation
              JOINT RightArm
              {
                OFFSET -6.45001 0.000490419 -0.000242947
                CHANNELS 6 Xposition Yposition Zposition Zrotation Xrotation Yrotation
                JOINT RightForeArm
                {
                  OFFSET -5.90473e-05 -32.4 -1.99998
                  CHANNELS 6 Xposition Yposition Zposition Zrotation Xrotation Yrotation
                  JOINT RightHand
                  {
                    OFFSET 5.84957e-05 -25.65 1.99999
                    CHANNELS 6 Xposition Yposition Zposition Zrotation Xrotation Yrotation
                    JOINT RightHandThumb1
                    {
                      OFFSET 0.499992 -1.5 2.65001
                      CHANNELS 6 Xposition Yposition Zposition Zrotation Xrotation Yrotation
                      JOINT RightHandThumb2
                      {
                        OFFSET -2.25273e-05 -3.80004 3.69999
                        CHANNELS 6 Xposition Yposition Zposition Zrotation Xrotation Yrotation
                        JOINT RightHandThumb3
                        {
                          OFFSET -2.03544e-05 -2.99999 2.70001
                          CHANNELS 6 Xposition Yposition Zposition Zrotation Xrotation Yrotation
                          End Site
                          {
                            OFFSET 0 -2.3 1.80002
                          }
                        }
                      }
                    }
                    JOINT RightHandIndex
                    {
                      OFFSET 6.60834e-05 -1.89996 1.6
                      CHANNELS 6 Xposition Yposition Zposition Zrotation Xrotation Yrotation
                      JOINT RightHandIndex1
                      {
                        OFFSET -7.55967e-05 -8.30005 1.89996
                        CHANNELS 6 Xposition Yposition Zposition Zrotation Xrotation Yrotation
                        JOINT RightHandIndex2
                        {
                          OFFSET 0 -4.50001 5.8028e-05
                          CHANNELS 6 Xposition Yposition Zposition Zrotation Xrotation Yrotation
                          JOINT RightHandIndex3
                          {
                            OFFSET 2.74893e-05 -3.4 -1.60923e-05
                            CHANNELS 6 Xposition Yposition Zposition Zrotation Xrotation Yrotation
                            End Site
                            {
                              OFFSET 0 -2.60001 1.70492e-05
                            }
                          }
                        }
                      }
                    }
                    JOINT RightHandMiddle
                    {
                      OFFSET 0.249983 -2.20002 0.400026
                      CHANNELS 6 Xposition Yposition Zposition Zrotation Xrotation Yrotation
                      JOINT RightHandMiddle1
                      {
                        OFFSET 0 -8.29996 0.999997
                        CHANNELS 6 Xposition Yposition Zposition Zrotation Xrotation Yrotation
                        JOINT RightHandMiddle2
                        {
                          OFFSET 0 -4.65 -3.63186e-05
                          CHANNELS 6 Xposition Yposition Zposition Zrotation Xrotation Yrotation
                          JOINT RightHandMiddle3
                          {
                            OFFSET 4.08957e-05 -3.30003 0
                            CHANNELS 6 Xposition Yposition Zposition Zrotation Xrotation Yrotation
                            End Site
                            {
                              OFFSET -3.26693e-05 -2.69991 6.2954e-05
                            }
                          }
                        }
                      }
                    }
                    JOINT RightHandRing
                    {
                      OFFSET 0.499982 -2.15002 -0.800018
                      CHANNELS 6 Xposition Yposition Zposition Zrotation Xrotation Yrotation
                      JOINT RightHandRing1
                      {
                        OFFSET 6.44453e-05 -7.75003 -0.200022
                        CHANNELS 6 Xposition Yposition Zposition Zrotation Xrotation Yrotation
                        JOINT RightHandRing2
                        {
                          OFFSET 2.54578e-05 -3.79999 1.60032e-05
                          CHANNELS 6 Xposition Yposition Zposition Zrotation Xrotation Yrotation
                          JOINT RightHandRing3
                          {
                            OFFSET -3.53643e-05 -3.39997 0
                            CHANNELS 6 Xposition Yposition Zposition Zrotation Xrotation Yrotation
                            End Site
                            {
                              OFFSET -4.53894e-05 -2.59996 -1.40679e-05
                            }
                          }
                        }
                      }
                    }
                    JOINT RightHandPinky
                    {
                      OFFSET 0.750044 -1.74994 -1.84996
                      CHANNELS 6 Xposition Yposition Zposition Zrotation Xrotation Yrotation
                      JOINT RightHandPinky1
                      {
                        OFFSET -5.11319e-05 -7.15002 -1
                        CHANNELS 6 Xposition Yposition Zposition Zrotation Xrotation Yrotation
                        JOINT RightHandPinky2
                        {
                          OFFSET -2.22334e-05 -3.00002 3.62022e-05
                          CHANNELS 6 Xposition Yposition Zposition Zrotation Xrotation Yrotation
                          JOINT RightHandPinky3
                          {
                            OFFSET -3.85804e-05 -2.35003 0
                            CHANNELS 6 Xposition Yposition Zposition Zrotation Xrotation Yrotation
                            End Site
                            {
                              OFFSET 2.74963e-05 -2.09992 0
                            }
                          }
                        }
                      }
                    }
                  }
                }
              }
            }
          }
        }
      }
    }
  }
  JOINT LeftUpLeg
  {
    OFFSET 7.99999 0 1.02701e-05
    CHANNELS 6 Xposition Yposition Zposition Zrotation Xrotation Yrotation
    JOINT LeftLeg
    {
      OFFSET 2.93879e-05 -45 -0.999989
      CHANNELS 6 Xposition Yposition Zposition Zrotation Xrotation Yrotation
      JOINT LeftFoot
      {
        OFFSET 0 -41.0001 -1.99999
        CHANNELS 6 Xposition Yposition Zposition Zrotation Xrotation Yrotation
        JOINT LeftToeBase
        {
          OFFSET 3.48862e-05 -7.5 12.5
          CHANNELS 6 Xposition Yposition Zposition Zrotation Xrotation Yrotation
          JOINT LeftFootToe
          {
            OFFSET 0 0 4
            CHANNELS 6 Xposition Yposition Zposition Zrotation Xrotation Yrotation
            End Site
            {
              OFFSET 0 0 0
            }
          }
        }
      }
    }
  }
  JOINT RightUpLeg
  {
    OFFSET -7.99999 0 -1.02701e-05
    CHANNELS 6 Xposition Yposition Zposition Zrotation Xrotation Yrotation
    JOINT RightLeg
    {
      OFFSET 0 -45 -1.00001
      CHANNELS 6 Xposition Yposition Zposition Zrotation Xrotation Yrotation
      JOINT RightFoot
      {
        OFFSET 0 -41 -2.00006
        CHANNELS 6 Xposition Yposition Zposition Zrotation Xrotation Yrotation
        JOINT RightToeBase
        {
          OFFSET 4.4518e-05 -7.50001 12.5
          CHANNELS 6 Xposition Yposition Zposition Zrotation Xrotation Yrotation
          JOINT RightFootToe
          {
            OFFSET 0 0 4
            CHANNELS 6 Xposition Yposition Zposition Zrotation Xrotation Yrotation
            End Site
            {
              OFFSET 0 0 0
            }
          }
        }
      }
    }
  }
}
MOTION
Frames:	2
Frame Time:	0.0111111
-333.492 92.8621 603.923 3.41245 -0.982901 165.443 -1.54449e-05 8 3.39104e-06 14.9392 7.11043 -3.83114 3.05323e-06 8 -2.13291e-05 3.15813 4.25174 3.81921 7.34485e-06 8 3.403e-05 1.61479 2.10141 1.93918 0 8 0 1.61116 2.09611 1.93882 -0.000172248 17 -0.00025595 2.06759 4.44968 -7.72297 3.49616e-05 10.8 1.10897e-05 5.77089 9.8907 -18.4647 4.9998 17 -0.000193509 -3.32647 3.69657 -5.03199 6.45 -2.84217e-14 0 -0.730178 -0.0459205 1.18217 6.45002 0.000119746 0.000350531 27.7746 7.70899 -3.90567 -4.90135e-06 -32.4 -1.99695 -107.881 -61.9074 -129.101 -1.03261e-05 -25.65 2 27.6898 -14.217 -46.6631 -0.499992 -1.49998 2.64999 -34.1291 -33.302 -25.4989 -4.13717e-07 -3.79998 3.70004 -0.057087 48.386 -0.0100768 3.5402e-07 -3.00004 2.69995 0.00304357 -0.166276 0.00627757 1.35361e-05 -1.90009 1.59998 6.44205e-06 -1.20778e-06 -2.5375e-06 6.88047e-06 -8.29995 1.9 -0.981984 -8.18627 -0.0311851 -2.07565e-06 -4.49996 -5.41051e-06 -83.7829 0.00796343 -0.00712452 -4.28726e-05 -3.4239 2.15166e-05 -73.2029 0.00245793 0.0165855 -0.249993 -2.2 0.4 6.44205e-06 -1.20778e-06 -2.5375e-06 -1.49941e-05 -8.29998 0.999993 -10.8844 3.08046 0.909176 -2.49054e-09 -4.64997 1.1277e-06 -73.286 0.0205213 -0.00230469 -2.56664e-05 -3.30004 1.15377e-05 -55.9511 0.015519 0.0211686 -0.500014 -2.15006 -0.800018 6.44205e-06 -1.20778e-06 -2.5375e-06 -8.50461e-06 -7.75001 -0.199999 -34.4734 16.8177 7.41556 1.00437e-05 -3.84935 9.02652e-07 -75.8524 0.0220076 0.00777309 -1.27827e-05 -3.40003 1.35011e-05 -57.6558 0.0048409 0.0268396 -0.75002 -1.75003 -1.85001 6.44205e-06 -1.20778e-06 -2.5375e-06 -1.75934e-05 -7.15 -0.999996 -44.6955 16.3428 9.54786 1.19021e-05 -3.00609 8.6701e-07 -88.4814 -0.0059995 0.00285414 -1.80488e-05 -2.35002 5.30195e-06 -81.2081 -0.0146883 -0.0121805 -5.0002 16.9999 -0.000337222 8.84976 0.626228 -1.67455 -6.45 5.68434e-14 0 -0.123336 -0.725932 2.52502 -6.44999 0.000195905 -0.000384437 -38.4387 2.79834 -53.2034 -7.16054e-05 -32.4 -1.99994 25.9845 -85.6302 27.8104 5.84589e-05 -25.65 1.99999 -25.8668 -8.83471 -5.29585 0.499998 -1.50004 2.65002 115.395 -34.6241 59.9418 -5.89644e-05 -3.80006 3.70003 138.801 89.8941 -138.716 -8.6633e-06 -3 2.69999 -1.89989 41.482 0.371643 6.03382e-05 -1.89997 1.6 5.71218e-06 1.61579e-06 4.07111e-06 -6.11137e-05 -8.30001 1.89996 53.4997 10.5535 -6.25483 -3.22397e-05 -4.49998 4.85188e-05 20.481 -0.038602 0.0125322 4.50079e-05 -3.39999 -1.6755e-05 16.1991 0.203179 -0.0285051 0.249969 -2.19998 0.400045 5.71218e-06 1.61579e-06 4.07111e-06 2.38203e-05 -8.29996 0.999989 51.1663 6.22229 -4.62964 -1.20684e-05 -4.65003 -2.47509e-05 17.5176 -0.0837248 0.0640317 3.49888e-05 -3.29996 -1.01941e-05 13.4024 -0.0608166 -0.0372316 0.499994 -2.15003 -0.799997 5.71218e-06 1.61579e-06 4.07111e-06 3.32831e-05 -7.75001 -0.200036 61.2263 1.11014 -4.23492 4.06855e-06 -3.8 1.66202e-05 13.4341 -0.00503855 -0.0159574 -2.5278e-05 -3.39995 -9.48401e-06 11.3782 0.00725994 -0.243242 0.750031 -1.74996 -1.84996 5.71218e-06 1.61579e-06 4.07111e-06 -3.73632e-05 -7.15 -0.999996 77.686 -0.144103 -8.49098 -5.09541e-06 -2.99998 2.36568e-05 38.3022 0.0048933 0.00977534 -1.51668e-05 -2.35003 -1.12032e-05 27.0588 0.099221 0.022135 8.00001 7.23545e-08 -1.02509e-05 13.5603 -19.4803 12.0357 6.78584e-06 -45 -1.00005 -2.78046 38.4931 -11.7474 4.7885e-06 -41 -2.00001 0.662055 -13.1403 -15.6172 -1.91192e-05 -7.5 12.5 -2.58524e-07 4.475e-06 -6.61501e-07 0 0 4 -1.77537 -0.607782 49.1743 -8.00001 -7.23545e-08 1.02509e-05 0.667711 -4.76546 -13.7761 8.32895e-06 -45 -1.00001 -0.227593 2.69631 -5.90669 -5.4844e-06 -41 -2.00006 8.67784 2.30322 -12.3293 2.94971e-05 -7.5 12.5 -0.000180395 0.0138469 1.6439e-05 2.84217e-14 3.55271e-15 4 -0.0820776 -3.07713 45.7895 
-333.473 92.829 603.848 3.683 -1.05112 165.503 -1.54449e-05 8 3.39104e-06 15.3763 7.14808 -3.83145 3.05323e-06 8 -2.13291e-05 3.18327 4.27846 3.80496 7.34485e-06 8 3.403e-05 1.62744 2.11469 1.93247 2.84217e-14 8 1.13687e-13 1.62301 2.10986 1.93188 -0.000172248 17 -0.00025595 2.07174 4.45003 -7.75105 3.49616e-05 10.8 1.10897e-05 5.78345 9.8886 -18.5318 4.9998 17 -0.000193509 -3.2797 3.76622 -5.11655 6.45 2.84217e-14 0 -0.711257 -0.036135 1.17098 6.45002 0.000119746 0.000350531 27.9622 7.54538 -3.80628 -4.90135e-06 -32.4 -1.99695 -107.746 -61.9693 -128.871 -1.03261e-05 -25.65 2 27.4316 -14.2783 -46.5018 -0.499992 -1.49998 2.64999 -33.7453 -33.4165 -25.5723 -4.13717e-07 -3.79998 3.70004 -0.0571012 48.3321 -0.0100661 3.5402e-07 -3.00004 2.69995 0.00304357 -0.166276 0.00627757 1.35361e-05 -1.90009 1.59998 6.44205e-06 -1.20778e-06 -2.5375e-06 6.88047e-06 -8.29995 1.9 -1.11236 -8.74788 -0.0371797 -2.07565e-06 -4.49996 -5.41051e-06 -83.9807 0.00222494 -0.00712452 -4.28726e-05 -3.4239 2.15166e-05 -73.6 -0.000758035 0.00536317 -0.249993 -2.2 0.4 6.44205e-06 -1.20778e-06 -2.5375e-06 -1.49941e-05 -8.29998 0.999993 -10.638 2.46733 0.851254 -2.49049e-09 -4.64997 1.1277e-06 -73.7757 0.01441 -0.00230469 -2.56664e-05 -3.30004 1.15377e-05 -56.5694 0.01056 0.0153162 -0.500014 -2.15006 -0.800018 6.44205e-06 -1.20778e-06 -2.5375e-06 -8.50461e-06 -7.75001 -0.199999 -33.9597 16.5264 7.20691 1.00437e-05 -3.84935 9.02652e-07 -76.7901 0.0210184 0.012536 -1.27827e-05 -3.40003 1.35011e-05 -58.9348 -0.000292105 0.0329154 -0.75002 -1.75003 -1.85001 6.44205e-06 -1.20778e-06 -2.5375e-06 -1.75934e-05 -7.15 -0.999996 -44.1803 16.4628 9.46461 1.19021e-05 -3.00609 8.6701e-07 -89.3003 0.00180621 0.0106548 -1.80488e-05 -2.35002 5.30195e-06 -83.372 -0.0341737 0.0114726 -5.0002 16.9999 -0.000337222 8.91611 0.621512 -1.68069 -6.45 0 -1.13687e-13 -0.114359 -0.731263 2.51696 -6.44999 0.000195905 -0.000384437 -38.4431 2.63615 -53.1896 -7.16054e-05 -32.4 -1.99994 22.6957 -85.3545 24.5076 5.84589e-05 -25.65 1.99999 -25.9111 -8.80391 -5.11105 0.499998 -1.50004 2.65002 115.882 -34.5441 60.617 -5.89644e-05 -3.80006 3.70003 148.488 89.8666 -148.405 -8.6633e-06 -3 2.69999 -1.89986 41.4784 0.371622 6.03382e-05 -1.89997 1.6 5.71218e-06 1.61579e-06 4.07111e-06 -6.11137e-05 -8.30001 1.89996 53.5785 10.5391 -6.25928 -3.22398e-05 -4.49998 4.85188e-05 20.8224 -0.038602 0.0125322 4.50079e-05 -3.39999 -1.6755e-05 16.4198 0.206289 -0.0285051 0.249969 -2.19998 0.400045 5.71218e-06 1.61579e-06 4.07111e-06 2.38203e-05 -8.29996 0.999989 51.4686 6.12712 -4.62881 -1.20684e-05 -4.65003 -2.47509e-05 17.3625 -0.0837248 0.0640317 3.49888e-05 -3.29996 -1.01941e-05 13.295 -0.0608166 -0.0372316 0.499994 -2.15003 -0.799997 5.71218e-06 1.61579e-06 4.07111e-06 3.32831e-05 -7.75001 -0.200036 61.5789 1.05577 -4.25554 4.06855e-06 -3.8 1.66202e-05 13.0935 -0.00503855 -0.0159574 -2.5278e-05 -3.39995 -9.48401e-06 11.1307 0.00725994 -0.245529 0.750031 -1.74996 -1.84996 5.71218e-06 1.61579e-06 4.07111e-06 -3.73632e-05 -7.15 -0.999996 77.912 -0.211511 -8.5155 -5.09541e-06 -2.99998 2.36568e-05 38.6875 0.0048933 0.00977534 -1.51668e-05 -2.35003 -1.12032e-05 27.292 0.099221 0.022135 8.00001 7.23544e-08 -1.02509e-05 13.8747 -19.7159 12.1532 6.78584e-06 -45 -1.00005 -2.75139 38.6126 -11.8647 4.7885e-06 -41 -2.00001 0.666097 -13.067 -15.3475 -1.91192e-05 -7.5 12.5 -2.58524e-07 4.475e-06 -6.61501e-07 0 -7.10543e-15 4 -1.48492 -0.510745 49.1796 -8.00001 -7.23545e-08 1.02509e-05 0.952269 -4.64224 -13.8329 8.32895e-06 -45 -1.00001 -0.228029 2.54812 -5.89447 -5.4844e-06 -41 -2.00006 8.69546 2.34371 -12.2366 2.94971e-05 -7.5 12.5 -0.000180395 0.0138469 1.6439e-05 -2.84217e-14 3.55271e-15 4 -0.0674092 -3.01663 45.786 
